# xmcd
#
# Track frame offsets: 
#        150
#        20059
#        44541
#        65503
#        87454
#        109172
#        132470
#        155575
#        175728
#        196908
#        221340
#        239793
#        266757
#        288141
#        311851
#
# Disc length: 4485 seconds
#
# Revision: 0
# Processed by: cddbd v1.5.2PL0 Copyright (c) Steve Scherf et al.
# Submitted via: ExactAudioCopyFreeDBPlugin 1.0
#
DISCID=e711830f
DTITLE=宏美 - HONESTY
DYEAR=2023
DGENRE=R&B
TTITLE0=I NEED YOU-愛されたい-
TTITLE1=ONE LOVE feat.SIMON
TTITLE2=似たものどうし
TTITLE3=HONESTY feat.HISATOMI
TTITLE4=MY LAST
TTITLE5=TEENAGE LOVE
TTITLE6=不意打ちLOVE
TTITLE7=TELL ME
TTITLE8=REASON
TTITLE9=最後の「愛してる」
TTITLE10=BUTTERFLIES
TTITLE11=未完成
TTITLE12=THE LIGHT
TTITLE13=また会える
TTITLE14=REASON - I STILL LOVE YOU -
EXTD=
EXTT0=
EXTT1=
EXTT2=
EXTT3=
EXTT4=
EXTT5=
EXTT6=
EXTT7=
EXTT8=
EXTT9=
EXTT10=
EXTT11=
EXTT12=
EXTT13=
EXTT14=
PLAYORDER=
